PathFileType	4	(x/y/z)	S06_PSF_T04
DataRate	CameraRate	NumFrames	NumMarkers	Units	OrigDataRate	OrigDataStartFrame	OrigNumFrames
240	240	9	51	mm	240	52	411
Frame#	Time	Sternum			R.Acromium			L.Acromium			Top.Head			R.ASIS			L.ASIS			R.PSIS			L.PSIS			R.Great.Tro			L.Great.Tro			R.Iliac.Crest			L.Iliac.Crest			V.Sacral			R.Thigh.Upper.Post			R.Thigh.Lower.Ant			R.Thigh.Lower.Post			R.Thigh.Upper.Ant			R.Knee.Lat			R.Knee.Med			R.Shank.Upper.Post			R.Shank.Lower.Ant			R.Shank.Lower.Post			R.Shank.Upper.Ant			R.Ankle.Lat			R.Ankle.Med			R.Heel.Upper			R.Heel.Med			R.Heel.Lat			R.Toe.Lat			R.Toe.Med			R.Toe.Tip			L.Thigh.Upper.Post			L.Thigh.Lower.Ant			L.Thigh.Lower.Post			L.Thigh.Upper.Ant			L.Knee.Lat			L.Knee.Med			L.Shank.Upper.Post			L.Shank.Lower.Ant			L.Shank.Lower.Post			L.Shank.Upper.Ant			L.Ankle.Lat			L.Ankle.Med			L.Heel.Upper			L.Heel.Med			L.Heel.Lat			L.Toe.Lat			L.Toe.Med			L.Toe.Tip			Cervical.Spine			Back			
		X1	Y1	Z1	X2	Y2	Z2	X3	Y3	Z3	X4	Y4	Z4	X5	Y5	Z5	X6	Y6	Z6	X7	Y7	Z7	X8	Y8	Z8	X9	Y9	Z9	X10	Y10	Z10	X11	Y11	Z11	X12	Y12	Z12	X13	Y13	Z13	X14	Y14	Z14	X15	Y15	Z15	X16	Y16	Z16	X17	Y17	Z17	X18	Y18	Z18	X19	Y19	Z19	X20	Y20	Z20	X21	Y21	Z21	X22	Y22	Z22	X23	Y23	Z23	X24	Y24	Z24	X25	Y25	Z25	X26	Y26	Z26	X27	Y27	Z27	X28	Y28	Z28	X29	Y29	Z29	X30	Y30	Z30	X31	Y31	Z31	X32	Y32	Z32	X33	Y33	Z33	X34	Y34	Z34	X35	Y35	Z35	X36	Y36	Z36	X37	Y37	Z37	X38	Y38	Z38	X39	Y39	Z39	X40	Y40	Z40	X41	Y41	Z41	X42	Y42	Z42	X43	Y43	Z43	X44	Y44	Z44	X45	Y45	Z45	X46	Y46	Z46	X47	Y47	Z47	X48	Y48	Z48	X49	Y49	Z49	X50	Y50	Z50	X51	Y51	Z51	

52	0.2125	-1224.7	1278.6	336.63	-1350.9	1483.4	507.27	-1382.5	1484.5	157.74	-1319.9	1799.3	329.53	NaN	NaN	NaN	NaN	NaN	NaN	-1472.1	1058	366.44	-1474.9	1063.6	286.71	-1340.7	960.23	513.77	-1359.3	967.31	157.39	-1366	1115.9	495.37	-1339.3	1114.9	176.09	-1488.6	1027.2	329.51	-1338	712.15	520.58	-1274.6	629.59	503.62	-1345.5	623.06	507.96	-1266.6	720.51	511.66	-1336.6	515.95	502.46	-1311.9	511.48	372.37	-1528.7	399.14	488.63	NaN	NaN	NaN	-1585.8	352.67	468.84	-1476.3	356.18	486.42	-1666	246.99	444.91	-1642.9	245.38	359.54	-1723.3	285.74	400.82	-1740.2	270.86	364.08	-1748.3	260.28	426.41	-1686.9	90.256	445.55	-1654	94.025	329.22	NaN	NaN	NaN	-1223.3	723.01	184.31	-1165.6	659.19	253.78	-1222.4	633.98	205.25	-1173.8	751.33	228.88	-1218.2	540.64	222.1	-1204.5	553.81	343.19	-1243.3	311.65	234.57	-1174.7	255.04	245.2	-1245.1	240.02	252.51	-1177.2	325.22	232.28	-1191.3	106.5	261	-1188.7	127.46	350.87	-1269.7	72.228	303.18	-1267.3	43.655	334.58	-1262.4	46.134	272.82	-1080.4	46.304	246.51	-1069.3	49.521	365.75	-993.95	64.797	316.79	-1426	1536.1	336.5	-1476	1262	339.24
53	0.21667	-1219.5	1278.7	336.66	-1345.8	1483.7	507.14	-1376.8	1484.7	157.55	-1314.7	1799.6	329.24	NaN	NaN	NaN	NaN	NaN	NaN	-1467.1	1058.1	366.07	-1469.8	1063.9	286.35	-1335.3	960.25	513.49	-1353.4	967.76	156.91	-1361.2	1115.8	495.16	-1334.1	1115.3	175.88	-1483.5	1027.4	329.04	-1329.2	712.35	520.86	-1264.9	630.49	503.85	-1335.8	623.2	508.38	-1258.1	721.53	511.67	-1325.4	516.34	503.11	-1300.2	511.6	373.01	-1517.9	400.77	489.98	NaN	NaN	NaN	-1575.4	354.78	470.33	-1465.8	357.38	487.3	-1656.5	250.01	446.39	-1633.5	248.01	360.83	-1712.9	289.49	402.26	-1730.3	274.83	365.71	-1738	264.44	428	-1679.3	93.273	447.2	-1646.5	96.242	331.01	NaN	NaN	NaN	-1218.9	723.06	183.73	-1161.1	659.23	253.14	-1218.1	634.07	204.85	-1169.1	751.32	228.08	-1214.1	540.71	221.86	-1199.7	553.88	342.73	-1241	311.93	234.51	-1172.8	254.77	245.23	-1243.4	240.34	252.54	-1174.8	324.96	232.2	-1190.6	106.55	261.16	-1188	127.47	350.94	-1269.8	72.586	303.28	-1267.2	43.767	334.64	-1262.3	46.323	272.86	-1080.3	46.147	246.48	-1069.1	48.746	365.95	-993.69	63.753	316.93	-1420.7	1536.4	336.26	-1470.9	1262.4	338.97
54	0.22083	-1214.3	1278.9	336.7	-1340.7	1484	507.02	-1371.1	1484.8	157.38	-1309.6	1799.9	328.96	NaN	NaN	NaN	NaN	NaN	NaN	-1462.2	1058.2	365.7	-1464.8	1064.2	285.99	-1330.1	960.32	513.24	-1347.6	968.19	156.44	-1356.3	1115.9	494.95	-1328.9	1115.8	175.67	-1478.5	1027.6	328.58	-1320.3	712.66	521.08	-1255.3	631.52	504	-1326.1	623.47	508.72	-1249.5	722.65	511.62	-1314.3	516.85	503.69	-1288.6	511.88	373.57	-1507	402.34	491.28	NaN	NaN	NaN	-1564.9	356.78	471.78	-1455.1	358.58	488.1	-1647	252.92	447.78	-1623.9	250.51	362.07	-1702.6	292.89	403.55	-1720.4	278.34	367.23	-1727.6	268.19	429.48	-1671.2	96.203	448.95	-1638.4	98.324	332.89	NaN	NaN	NaN	-1214.6	723.07	183.16	-1156.7	659.21	252.47	-1214	634.13	204.47	-1164.5	751.26	227.25	-1210.2	540.76	221.64	-1195.1	553.92	342.29	-1238.7	312.19	234.49	-1171.1	254.52	245.26	-1241.7	240.67	252.6	-1172.4	324.7	232.12	-1190	106.63	261.32	-1187.3	127.49	351.03	-1269.8	72.927	303.38	-1267.1	43.866	334.7	-1262.2	46.509	272.9	-1080.2	46.03	246.45	-1068.9	48.03	366.14	-993.47	62.8	317.07	-1415.3	1536.8	336.03	-1465.8	1262.7	338.7
55	0.225	-1209.2	1279	336.75	-1335.6	1484.4	506.92	-1365.4	1485	157.22	-1304.4	1800.2	328.67	NaN	NaN	NaN	NaN	NaN	NaN	-1457.3	1058.4	365.34	-1459.8	1064.5	285.65	-1324.9	960.45	512.99	-1341.8	968.59	155.99	-1351.5	1115.9	494.75	-1323.8	1116.2	175.46	-1473.5	1027.8	328.14	-1311.5	713.07	521.26	-1245.8	632.67	504.06	-1316.4	623.86	508.99	-1241	723.88	511.52	-1303.2	517.47	504.19	-1277.2	512.31	374.06	-1496	403.85	492.54	NaN	NaN	NaN	-1554.3	358.68	473.2	-1444.4	359.8	488.8	-1637.3	255.68	449.08	-1614.2	252.86	363.27	-1692.4	295.94	404.71	-1710.5	281.35	368.63	-1717.3	271.52	430.85	-1662.4	99.021	450.81	-1629.7	100.25	334.87	NaN	NaN	NaN	-1210.4	723.04	182.59	-1152.4	659.15	251.79	-1209.9	634.16	204.11	-1160	751.15	226.39	-1206.3	540.8	221.45	-1190.6	553.91	341.86	-1236.6	312.45	234.5	-1169.4	254.26	245.3	-1240.1	240.99	252.69	-1170.2	324.44	232.06	-1189.5	106.72	261.48	-1186.7	127.51	351.12	-1269.9	73.251	303.48	-1267	43.956	334.75	-1262.1	46.691	272.94	-1080.1	45.946	246.42	-1068.7	47.373	366.31	-993.27	61.931	317.19	-1410	1537.1	335.83	-1460.7	1263.1	338.44
56	0.22917	-1204.1	1279.2	336.82	-1330.5	1484.7	506.83	-1359.8	1485.2	157.08	-1299.2	1800.5	328.4	NaN	NaN	NaN	NaN	NaN	NaN	-1452.4	1058.5	364.98	-1454.8	1064.7	285.31	-1319.7	960.62	512.75	-1336.1	968.96	155.55	-1346.7	1116	494.55	-1318.7	1116.5	175.25	-1468.5	1028	327.72	-1302.8	713.58	521.38	-1236.3	633.95	504.03	-1306.8	624.35	509.19	-1232.6	725.21	511.36	-1292.1	518.22	504.61	-1265.8	512.9	374.47	-1485	405.29	493.74	NaN	NaN	NaN	-1543.7	360.45	474.57	-1433.6	361.01	489.42	-1627.5	258.28	450.29	-1604.3	255.04	364.43	-1682.2	298.61	405.73	-1700.5	283.88	369.91	-1706.9	274.42	432.12	-1653.1	101.71	452.77	-1620.5	102	336.94	NaN	NaN	NaN	-1206.3	722.99	182.04	-1148.3	659.05	251.11	-1206.1	634.16	203.76	-1155.6	751	225.51	-1202.5	540.82	221.29	-1186.1	553.88	341.44	-1234.6	312.71	234.54	-1167.8	254.02	245.33	-1238.6	241.31	252.8	-1168.1	324.18	231.99	-1188.9	106.82	261.64	-1186.1	127.54	351.22	-1269.9	73.553	303.59	-1266.9	44.037	334.81	-1262	46.87	272.99	-1080	45.888	246.4	-1068.6	46.772	366.48	-993.1	61.142	317.31	-1404.8	1537.5	335.64	-1455.7	1263.5	338.18
57	0.23333	-1199.1	1279.3	336.88	-1325.4	1485	506.75	-1354.1	1485.4	156.96	-1294	1800.8	328.13	NaN	NaN	NaN	NaN	NaN	NaN	-1447.6	1058.7	364.63	-1449.9	1065	284.98	-1314.6	960.85	512.51	-1330.4	969.32	155.15	-1341.9	1116.1	494.35	-1313.6	1116.9	175.05	-1463.5	1028.3	327.32	-1294.1	714.19	521.46	-1226.9	635.33	503.93	-1297.1	624.96	509.33	-1224.1	726.64	511.15	-1281	519.08	504.95	-1254.6	513.64	374.81	-1474	406.67	494.87	NaN	NaN	NaN	-1532.9	362.09	475.87	-1422.8	362.23	489.96	-1617.5	260.71	451.4	-1594.4	257.03	365.54	-1672.1	300.9	406.62	-1690.5	285.9	371.07	-1696.6	276.91	433.29	-1643.2	104.24	454.82	-1610.7	103.57	339.09	NaN	NaN	NaN	-1202.3	722.91	181.52	-1144.2	658.9	250.42	-1202.3	634.15	203.44	-1151.2	750.81	224.62	-1198.9	540.83	221.14	-1181.7	553.81	341.04	-1232.6	312.95	234.61	-1166.3	253.79	245.36	-1237.2	241.62	252.94	-1166.1	323.93	231.93	-1188.4	106.93	261.8	-1185.6	127.58	351.34	-1270	73.835	303.7	-1266.8	44.111	334.86	-1261.9	47.048	273.04	-1079.9	45.852	246.39	-1068.4	46.228	366.62	-992.94	60.424	317.41	-1399.5	1538	335.47	-1450.7	1264	337.93
58	0.2375	-1194.1	1279.5	336.95	-1320.4	1485.4	506.68	-1348.6	1485.6	156.84	-1288.8	1801.2	327.86	NaN	NaN	NaN	NaN	NaN	NaN	-1442.7	1058.9	364.3	-1444.9	1065.3	284.66	-1309.4	961.14	512.29	-1324.8	969.65	154.77	-1337.2	1116.3	494.16	-1308.6	1117.3	174.84	-1458.6	1028.5	326.94	-1285.5	714.89	521.49	-1217.5	636.83	503.74	-1287.6	625.67	509.41	-1215.8	728.18	510.88	-1270	520.05	505.22	-1243.6	514.53	375.07	-1462.9	407.98	495.92	NaN	NaN	NaN	-1522.2	363.6	477.1	-1411.9	363.44	490.41	-1607.4	262.93	452.43	-1584.2	258.83	366.6	-1662	302.81	407.38	-1680.5	287.44	372.12	-1686.3	278.97	434.38	-1632.7	106.59	456.96	-1600.4	104.93	341.31	NaN	NaN	NaN	-1198.5	722.82	181.01	-1140.2	658.72	249.73	-1198.7	634.11	203.12	-1146.9	750.59	223.74	-1195.4	540.83	221.02	-1177.4	553.72	340.65	-1230.8	313.19	234.69	-1164.9	253.56	245.38	-1235.8	241.93	253.09	-1164.2	323.69	231.86	-1187.9	107.04	261.96	-1185	127.63	351.45	-1270	74.094	303.8	-1266.8	44.181	334.91	-1261.8	47.223	273.08	-1079.8	45.832	246.38	-1068.2	45.739	366.75	-992.8	59.773	317.51	-1394.3	1538.4	335.3	-1445.7	1264.4	337.69
59	0.24167	-1189.1	1279.7	337.03	-1315.4	1485.7	506.62	-1343	1485.9	156.74	-1283.5	1801.6	327.61	NaN	NaN	NaN	NaN	NaN	NaN	-1437.9	1059.1	363.97	-1440	1065.5	284.35	-1304.4	961.48	512.07	-1319.2	969.97	154.42	-1332.4	1116.5	493.96	-1303.6	1117.6	174.64	-1453.6	1028.7	326.58	-1277	715.68	521.49	-1208.2	638.43	503.49	-1278	626.48	509.43	-1207.4	729.81	510.57	-1259.1	521.13	505.41	-1232.7	515.57	375.26	-1451.9	409.22	496.89	NaN	NaN	NaN	-1511.3	364.96	478.25	-1400.9	364.65	490.79	-1597.1	264.94	453.38	-1574	260.4	367.6	-1651.9	304.31	408.03	-1670.4	288.48	373.06	-1676.1	280.62	435.38	-1621.6	108.76	459.17	-1589.5	106.07	343.59	NaN	NaN	NaN	-1194.7	722.72	180.53	-1136.3	658.51	249.05	-1195.2	634.07	202.83	-1142.7	750.33	222.86	-1192.1	540.82	220.9	-1173.2	553.62	340.27	-1229	313.42	234.79	-1163.6	253.35	245.39	-1234.5	242.23	253.26	-1162.3	323.45	231.79	-1187.5	107.17	262.1	-1184.5	127.68	351.57	-1270	74.334	303.91	-1266.7	44.248	334.96	-1261.8	47.398	273.13	-1079.7	45.825	246.38	-1068.1	45.304	366.87	-992.68	59.183	317.6	-1389.1	1538.9	335.15	-1440.7	1264.9	337.44
60	0.24583	-1184.2	1280	337.1	-1310.3	1486.1	506.57	-1337.5	1486.1	156.65	-1278.2	1802	327.37	NaN	NaN	NaN	NaN	NaN	NaN	-1433	1059.3	363.65	-1435.1	1065.8	284.06	-1299.3	961.87	511.85	-1313.8	970.28	154.11	-1327.6	1116.7	493.77	-1298.6	1118	174.44	-1448.7	1029	326.25	-1268.5	716.55	521.44	-1199	640.13	503.16	-1268.5	627.39	509.41	-1199.1	731.52	510.22	-1248.2	522.33	505.53	-1222	516.76	375.37	-1440.8	410.38	497.76	NaN	NaN	NaN	-1500.4	366.16	479.31	-1389.9	365.84	491.09	-1586.7	266.72	454.26	-1563.6	261.74	368.56	-1641.8	305.42	408.57	-1660.2	289.05	373.91	-1665.9	281.86	436.31	-1610.1	110.72	461.43	-1578.2	107	345.93	NaN	NaN	NaN	-1191	722.62	180.08	-1132.5	658.27	248.37	-1191.9	634.03	202.54	-1138.6	750.06	221.99	-1188.8	540.81	220.8	-1169.1	553.51	339.91	-1227.4	313.64	234.9	-1162.3	253.14	245.39	-1233.3	242.53	253.43	-1160.6	323.22	231.72	-1187.1	107.29	262.24	-1184.1	127.73	351.68	-1270	74.553	304.01	-1266.6	44.315	335.01	-1261.7	47.571	273.17	-1079.7	45.827	246.38	-1067.9	44.921	366.96	-992.56	58.649	317.69	-1384	1539.4	335.01	-1435.8	1265.3	337.2
